<?xml version="1.0" encoding="UTF-8"?>
<svg version="1.1" xmlns="http://www.w3.org/2000/svg" width="200" height="200">
<path d="M0 0 C66 0 132 0 200 0 C200 66 200 132 200 200 C134 200 68 200 0 200 C0 134 0 68 0 0 Z " fill="none" transform="translate(0,0)"/>
<path d="M0 0 C66 0 132 0 200 0 C200 39.27 200 78.54 200 119 C198.02 117.35 196.04 115.7 194 114 C191.251402 113.28231812 191.251402 113.28231812 188.5 113.1875 C183.50205844 112.44756249 183.50205844 112.44756249 181.30859375 110.4921875 C180.34975045 109.14270433 179.43886748 107.7584373 178.56640625 106.3515625 C176.77627013 103.66412623 174.68846478 101.68863688 172.375 99.4375 C166.57903783 93.22192065 163.06598043 86.01854702 159.37451172 78.41186523 C150.37979205 60.08314867 134.86313714 49.38858492 115.90600586 42.66479492 C100.67713405 37.68003498 87.11079855 39.7296989 72.9375 46.6875 C56.80914785 54.94687693 47.44629287 64.49116149 39.64038086 80.69213867 C36.69039668 86.77311202 33.60304649 92.01014289 29 97 C28.15953125 97.93328125 27.3190625 98.8665625 26.453125 99.828125 C24.72783124 101.73982766 22.98758839 103.63292119 21.234375 105.51953125 C19.0043829 107.85900825 19.0043829 107.85900825 17.57421875 110.23046875 C15.34598136 112.73516239 13.31575059 112.88875885 10.0625 113.5 C4.8385125 114.48394808 4.04878948 114.95121052 0 119 C0 79.73 0 40.46 0 0 Z " fill="none" transform="translate(0,0)"/>
<path d="M0 0 C2.31 1.98 4.62 3.96 7 6 C7.99 6.33 8.98 6.66 10 7 C10.50214939 8.9081677 10.9945719 10.81978379 11.421875 12.74609375 C13.26745903 19.94137743 16.82289728 24.93021976 23 29 C31.37085384 33.40242176 38.62034684 34.7300325 47.99780273 34.64697266 C49.85642441 34.66011505 49.85642441 34.66011505 51.75259399 34.67352295 C55.11477039 34.69161477 58.47538479 34.68757977 61.83746982 34.67162752 C65.38011474 34.65884193 68.92269935 34.67074361 72.46534729 34.67855835 C78.41232071 34.68761972 84.35898228 34.67576138 90.3059082 34.65185547 C97.14873097 34.62466311 103.9908082 34.63345814 110.83361286 34.6609875 C116.74235354 34.68379365 122.65087183 34.68682259 128.55964237 34.67379415 C132.07389167 34.66606067 135.58779245 34.66478664 139.10201836 34.68147659 C143.02589996 34.69881487 146.94896974 34.67467907 150.87280273 34.64697266 C152.01345688 34.65709381 153.15411102 34.66721497 154.32933044 34.67764282 C163.54452304 34.55800051 172.81246516 32.32766577 180.4375 26.875 C184.77460574 22.00897893 188.50354809 16.27421856 189.4921875 9.75390625 C189.74355469 8.39072266 189.74355469 8.39072266 190 7 C192.8125 5.375 192.8125 5.375 196 4 C197.32 2.68 198.64 1.36 200 0 C200 24.42 200 48.84 200 74 C134 74 68 74 0 74 C0 49.58 0 25.16 0 0 Z " fill="none" transform="translate(0,126)"/>
<path d="M0 0 C8.26544366 6.27765606 12.92710573 13.32611 17.4609375 22.53515625 C22.77860828 33.59447199 22.77860828 33.59447199 30.65234375 42.84765625 C34.35853183 46.30569783 37.546703 50.39467243 40.4609375 54.53515625 C40.4609375 55.19515625 40.4609375 55.85515625 40.4609375 56.53515625 C41.19699219 56.5609375 41.93304688 56.58671875 42.69140625 56.61328125 C52.50506074 57.18369181 52.50506074 57.18369181 56.4609375 61.53515625 C58.03549489 64.68427104 57.80892868 67.05524441 57.4609375 70.53515625 C55.60212419 74.00596949 53.48502685 76.21655067 49.6484375 77.41015625 C48.9265625 77.45140625 48.2046875 77.49265625 47.4609375 77.53515625 C47.51121094 78.41300781 47.56148437 79.29085937 47.61328125 80.1953125 C47.32126044 86.59730727 43.79573681 92.0736624 39.4453125 96.66015625 C30.23552821 104.3460194 20.25708805 106.13510085 8.56079102 106.06860352 C7.32024963 106.07721909 6.07970825 106.08583466 4.80157471 106.0947113 C1.43135359 106.113394 -1.93787462 106.11431173 -5.30806994 106.10538983 C-8.13582599 106.10024125 -10.96349597 106.10760358 -13.79124314 106.11486191 C-20.46906121 106.13179986 -27.14665044 106.12835715 -33.82446289 106.11157227 C-40.68260257 106.09465556 -47.54010548 106.11049255 -54.39817566 106.14279515 C-60.31620556 106.16959997 -66.23403859 106.17673792 -72.15212303 106.16828007 C-75.67364113 106.16338252 -79.19477656 106.16539191 -82.71624565 106.18606758 C-86.64758573 106.20804982 -90.57817419 106.18890335 -94.50952148 106.16625977 C-95.65534195 106.17795197 -96.80116241 106.18964417 -97.98170471 106.20169067 C-108.50817866 106.07904011 -118.12392652 102.94370484 -125.84765625 95.55859375 C-129.72887674 90.91547086 -132.3300585 85.95960268 -132.8515625 79.91015625 C-132.696875 78.73453125 -132.696875 78.73453125 -132.5390625 77.53515625 C-133.2609375 77.49390625 -133.9828125 77.45265625 -134.7265625 77.41015625 C-138.57823728 76.21185743 -140.64953048 73.99671697 -142.5390625 70.53515625 C-143.16254259 66.58644904 -142.93816084 64.41317261 -141.2890625 60.78515625 C-138.21162268 58.26725094 -136.69146318 58.08519611 -132.8515625 57.41015625 C-126.29030462 56.00701969 -123.68408461 53.06780921 -119.8671875 47.71484375 C-117.90815021 45.03924584 -115.91161286 42.78434326 -113.64453125 40.3828125 C-109.1857012 35.43016728 -106.46439971 30.07137786 -103.6015625 24.09765625 C-99.42602592 15.79248252 -95.68127022 8.65533088 -88.5390625 2.53515625 C-87.64960937 1.76558594 -86.76015625 0.99601562 -85.84375 0.203125 C-58.49936121 -21.78176359 -27.75668783 -19.8361022 0 0 Z M-80.5390625 1.53515625 C-81.52003906 2.19515625 -82.50101563 2.85515625 -83.51171875 3.53515625 C-91.24639049 9.58934535 -95.02447467 17.3397914 -99.2175293 26.07275391 C-103.59294452 35.15023317 -109.16910849 42.28619773 -116.1640625 49.47265625 C-124.81265937 58.60598708 -128.06684005 67.30622683 -127.8125 79.79296875 C-127.33245317 86.36275254 -125.11365587 90.28554558 -120.4140625 94.78515625 C-112.1892061 101.03787676 -103.90863477 102.12411527 -93.8125 102.05273438 C-92.57864563 102.05974365 -91.34479126 102.06675293 -90.07354736 102.07397461 C-86.71785133 102.08847546 -83.36315321 102.0852015 -80.00751495 102.07245827 C-76.47814194 102.06225511 -72.94880847 102.07174407 -69.41943359 102.07800293 C-63.49504031 102.08525824 -57.57084719 102.07574762 -51.64648438 102.05664062 C-44.81964004 102.03487576 -37.99327373 102.04192865 -31.16644096 102.06394625 C-25.28074013 102.082161 -19.3951823 102.08462908 -13.50946236 102.07419157 C-10.00482486 102.06798981 -6.50041125 102.06702851 -2.99578857 102.08033752 C0.91445156 102.09415254 4.82416619 102.07494748 8.734375 102.05273438 C10.45222198 102.06487976 10.45222198 102.06487976 12.20477295 102.07727051 C21.64572692 101.9783328 30.00811456 99.88626332 36.98828125 93.203125 C42.64122992 86.80044839 43.10356503 80.6573806 42.8359375 72.21875 C41.75174685 61.5688356 35.89394066 53.82651687 28.36328125 46.4921875 C21.74800956 39.90092769 17.98558838 32.37526211 13.97363281 23.99731445 C7.12411878 10.01974575 -2.97603251 2.2011931 -16.6015625 -4.71484375 C-17.24996094 -5.04427979 -17.89835937 -5.37371582 -18.56640625 -5.71313477 C-26.55816572 -9.63579682 -33.82788937 -12.02171502 -42.7890625 -11.90234375 C-44.03284668 -11.88772095 -44.03284668 -11.88772095 -45.30175781 -11.87280273 C-58.93538896 -11.48293058 -69.53477084 -6.03902475 -80.5390625 1.53515625 Z " fill="#ffffff" transform="translate(142.5390625,55.46484375)"/>
<path d="M0 0 C4.30352985 0.47816998 6.20195412 2.86113951 9 6 C10.45500281 8.40316088 11.6578441 10.90743568 12.875 13.4375 C16.35657546 20.30212357 19.55157968 24.42459876 26.375 28.375 C33.52537066 30.07746921 39.23869323 29.29165596 45.71484375 25.73828125 C49.79457393 22.63489675 51.72726002 18.49989491 54 14 C60.20421843 2.8515458 60.20421843 2.8515458 65 0 C65.99 0 66.98 0 68 0 C68 1.32 68 2.64 68 4 C66.51865739 5.28812401 65.03032179 6.57212515 63.46875 7.76171875 C61.67299726 9.27569114 60.81164021 10.80857144 60 13 C60.886875 12.896875 61.77375 12.79375 62.6875 12.6875 C73.18377965 12.70879063 84.22465745 19.25473835 91.48046875 26.46484375 C99.65761766 35.31800497 99.65761766 35.31800497 100.375 40.9375 C99.90977662 44.7368243 98.63608379 46.28638434 96 49 C92.84017111 50.57991444 90.49944139 50.34420735 87 50 C82.85836255 48.00089794 79.98253176 45.08800425 77.1875 41.5 C71.7888795 34.90966274 63.2516606 32.04598515 55 31 C50.28591853 30.54796479 46.45442238 30.63916542 42.0625 32.5 C37.40054515 34.45022016 32.99224291 34.64256592 28 34 C26.865625 33.505 25.73125 33.01 24.5625 32.5 C16.57557852 29.13708569 8.71029213 30.82322155 0.796875 33.734375 C-4.67704229 36.21139902 -8.93076761 39.51477422 -12.6875 44.1875 C-16.00777918 48.22567738 -18.29060064 49.78632508 -23.5 50.4375 C-27.5691036 49.92886205 -29.13345069 48.86654931 -32 46 C-33.41585494 43.16829011 -33.26045495 41.14461044 -33 38 C-26.97514787 25.86169497 -15.39621675 18.1694054 -2.9375 13.796875 C0.60883185 12.83483817 3.36614019 12.57745816 7 13 C3.97868242 7.15648093 3.97868242 7.15648093 -1 3 C-0.67 2.01 -0.34 1.02 0 0 Z " fill="#ffffff" transform="translate(66,100)"/>
<path d="M0 0 C10.42285111 -0.94753192 19.46333895 3.57749956 27.51171875 9.85546875 C37.04258022 18.0696649 37.04258022 18.0696649 37.9375 24 C37.958125 24.99 37.97875 25.98 38 27 C35 29 35 29 32.109375 28.921875 C28.27368218 27.78465954 26.87887843 26.23174801 24.25 23.25 C19.60292935 18.35097973 15.24079315 15.48324754 9 13 C7.989375 12.5875 6.97875 12.175 5.9375 11.75 C1.99178345 10.74258301 -1.94835695 10.34213875 -6 10 C-5.34 9.01 -4.68 8.02 -4 7 C4.50113269 5.71681016 13.41408715 9.45482092 20.5 14.0625 C21.325 14.701875 22.15 15.34125 23 16 C24.36125 17.0209375 24.36125 17.0209375 25.75 18.0625 C28 20 28 20 30 23 C32.05925139 23.72382467 32.05925139 23.72382467 34 24 C28.24430144 13.63974259 18.76363073 8.23361998 7.6328125 5.03125 C4.76371644 4.30216206 1.89413949 3.62125507 -1 3 C-0.67 2.01 -0.34 1.02 0 0 Z " fill="none" transform="translate(124,117)"/>
<path d="M0 0 C0.90105469 0.00902344 1.80210938 0.01804687 2.73046875 0.02734375 C3.41753906 0.03894531 4.10460937 0.05054687 4.8125 0.0625 C5.3075 1.5475 5.3075 1.5475 5.8125 3.0625 C4.92949219 3.20945312 4.04648438 3.35640625 3.13671875 3.5078125 C-8.71821772 5.72345047 -18.92869558 9.97992736 -27.1875 19.0625 C-28.71884378 21.78076792 -28.71884378 21.78076792 -29.1875 24.0625 C-25.65021437 22.07393838 -22.80882529 19.91937473 -19.875 17.125 C-15.90322296 13.52928823 -12.13453313 11.07521155 -7.1875 9.0625 C-5.764375 8.44375 -5.764375 8.44375 -4.3125 7.8125 C0.07652247 6.75913461 4.32148418 6.90274054 8.8125 7.0625 C9.3075 8.0525 9.3075 8.0525 9.8125 9.0625 C8.76191406 9.28164062 7.71132812 9.50078125 6.62890625 9.7265625 C-5.83144757 12.47523547 -13.3442334 16.5324997 -21.94921875 26.20703125 C-24.73238566 28.51419405 -26.60069971 28.9232534 -30.1875 29.0625 C-31.1775 28.4025 -32.1675 27.7425 -33.1875 27.0625 C-33.04243593 20.09942457 -30.04058974 16.82805907 -25.1875 12.0625 C-24.63707031 11.51335937 -24.08664063 10.96421875 -23.51953125 10.3984375 C-17.12001204 4.4701418 -8.82109682 -0.1145597 0 0 Z " fill="none" transform="translate(71.1875,116.9375)"/>
<path d="M0 0 C-0.99 4.29 -1.98 8.58 -3 13 C-8.04347826 11.73913043 -8.04347826 11.73913043 -10 9 C-10.375 6.5 -10.375 6.5 -10 4 C-7.24170935 0.32227913 -4.52786136 0 0 0 Z " fill="none" transform="translate(14,116)"/>
<path d="M0 0 C6.38342541 0.60220994 6.38342541 0.60220994 8.9375 2.25 C10.44180259 4.72767486 10.48669885 6.14933533 10 9 C8.1875 11.3125 8.1875 11.3125 6 13 C5.01 13 4.02 13 3 13 C2.86722656 12.39671875 2.73445312 11.7934375 2.59765625 11.171875 C2.42105469 10.37265625 2.24445313 9.5734375 2.0625 8.75 C1.88847656 7.96109375 1.71445313 7.1721875 1.53515625 6.359375 C1.052444 4.23121297 0.53836822 2.11467158 0 0 Z " fill="none" transform="translate(186,116)"/>
<path d="M0 0 C1.32 0 2.64 0 4 0 C4 2.64 4 5.28 4 8 C2.68 8 1.36 8 0 8 C0 5.36 0 2.72 0 0 Z " fill="#ffffff" transform="translate(135,76)"/>
<path d="M0 0 C1.32 0 2.64 0 4 0 C4 2.64 4 5.28 4 8 C2.68 8 1.36 8 0 8 C0 5.36 0 2.72 0 0 Z " fill="#ffffff" transform="translate(61,76)"/>
</svg>
